<svg width="120" height="50" viewBox="0 0 120 50" fill="none" xmlns="http://www.w3.org/2000/svg">
<g clip-path="url(#clip0_138_469)">
<path d="M15.6407 14.1805C15.2625 14.1967 14.2844 14.2823 13.8094 14.3402C13.3032 14.405 12.05 14.6458 11.4157 14.8032C9.91567 15.1712 7.84067 16.0485 6.52192 16.8633C5.93754 17.2268 4.94692 17.9513 4.48129 18.3564C3.42504 19.2777 2.50004 20.4258 1.85004 21.6226C1.58129 22.1203 1.51567 22.2731 1.30004 22.8703C1.09067 23.4652 0.915668 24.1365 0.875043 24.5138C0.859418 24.6735 0.831293 24.949 0.809418 25.1272C0.728168 25.861 0.834418 27.287 1.01567 27.8633C1.04379 27.9513 1.10004 28.1458 1.14379 28.2985C1.45942 29.412 2.09067 30.6226 2.84067 31.5555C3.09379 31.8726 3.59067 32.4258 3.94692 32.7893C5.40317 34.2754 7.38442 35.493 9.67192 36.3101C11.2532 36.8726 12.7844 37.2291 14.3125 37.3842C15.7438 37.5277 16.8719 37.5416 18.2344 37.4305C18.9907 37.368 19.2282 37.3379 19.9063 37.2221C21.1438 37.0138 21.4282 36.9444 22.7188 36.5346C23.7282 36.2129 24.3032 35.9837 25.1532 35.5601C26.7313 34.7777 28.2125 33.7059 29.3219 32.5485C30.1719 31.6596 30.9469 30.5833 31.3375 29.7383C31.825 28.6944 32.1219 27.6596 32.2219 26.6573C32.25 26.3587 32.2594 25.1458 32.2344 25.0115C32.2188 24.9421 32.2 24.8078 32.1719 24.5763C32.1657 24.5115 32.1438 24.3981 32.1282 24.3286C32.0907 24.1712 32.0719 24.0786 32.0469 23.9004C32.0032 23.5971 31.7438 22.861 31.4125 22.0948C31.2969 21.8309 30.9 21.0995 30.7969 20.9606C30.7407 20.8842 30.6844 20.7962 30.6719 20.7638C30.6594 20.7314 30.5813 20.618 30.5 20.5092C30.4188 20.4004 30.2719 20.2036 30.1719 20.0694C29.825 19.6087 29.1688 18.905 28.7219 18.5092C28.5907 18.3958 28.4375 18.2592 28.3813 18.2083C28.1375 17.986 27.2469 17.3194 26.8563 17.0671C26.075 16.5624 25.2688 16.1249 24.4688 15.7754C23.6875 15.4328 22.3188 14.9629 21.625 14.7962C19.8094 14.3633 18.475 14.1967 16.7032 14.1805C16.2407 14.1758 15.7625 14.1758 15.6407 14.1805ZM17.6344 15.7291C20.3875 15.9096 22.3969 16.4791 24.8282 17.7684C25.3 18.0184 26.2563 18.6527 26.5875 18.9351C26.975 19.2661 27.6907 19.949 27.9563 20.243C28.4032 20.7383 28.9625 21.5485 29.2969 22.1874C29.6875 22.9328 30.025 23.8934 30.1094 24.5022C30.2969 25.824 30.2813 26.3448 30.0125 27.6157C29.9625 27.8564 29.7 28.5763 29.4782 29.0856C29.2907 29.5161 29.1344 29.8008 28.8625 30.2198C27.6469 32.0925 25.7813 33.5925 23.425 34.5948C22.5657 34.9583 21.3657 35.3495 20.4688 35.5532C20.1125 35.6342 18.9594 35.8286 18.6063 35.8657C18.4188 35.8865 18.1688 35.9143 18.0469 35.9282C17.7188 35.9652 15.5938 35.9675 15.1563 35.9305C14.275 35.8564 13.1375 35.6828 12.4532 35.5184C11.5063 35.287 10.1407 34.8263 9.33754 34.4629C7.64379 33.7013 6.21254 32.6735 5.11254 31.4305C4.38754 30.6064 3.95942 29.9374 3.51567 28.9351C2.79692 27.3008 2.64692 25.8541 3.01879 24.1087C3.06879 23.8726 3.35004 23.0277 3.49067 22.6967C3.62817 22.3703 4.15942 21.4421 4.34379 21.2036C4.40629 21.1203 4.52817 20.9583 4.60629 20.8448C4.87817 20.4629 5.56254 19.7337 6.07192 19.2823C6.81567 18.6226 7.07817 18.4397 8.02817 17.8958C8.75629 17.4791 8.90629 17.4004 9.33129 17.2083C10.0375 16.8865 11.5032 16.3749 12.225 16.1967C12.6719 16.0856 13.9594 15.8564 14.3938 15.8101C15.4813 15.6944 16.6469 15.6643 17.6344 15.7291Z" fill="#CB9351" fill-opacity="0.7"/>
<path d="M22.9375 20.6828V22.5231L16.3282 22.5277L9.71879 22.5347V20.7453C9.71879 19.7639 9.70942 18.9583 9.70004 18.9583C9.69067 18.9583 9.60942 19.0046 9.52192 19.0601C9.43129 19.1157 9.09379 19.3078 8.76567 19.4907C7.82817 20.0115 7.01879 20.6458 6.24692 21.4583C5.97504 21.743 5.37504 22.5115 5.26254 22.7199C4.63129 23.8703 4.35317 25.0694 4.45629 26.1828C4.55004 27.1851 4.66254 27.6134 5.03442 28.4213C5.33442 29.0671 6.11567 30.0393 6.79379 30.6134C6.90004 30.7014 7.05004 30.8333 7.12504 30.9027C7.33754 31.0949 8.08442 31.6666 8.26254 31.7708C8.35004 31.8217 8.55317 31.9444 8.71254 32.0439C8.87504 32.1412 9.14379 32.2963 9.31254 32.3842C9.48129 32.4745 9.63129 32.5578 9.64067 32.5694C9.65004 32.5833 9.67192 32.5926 9.69067 32.5926C9.70629 32.5926 9.71879 31.9861 9.71879 31.0185V29.4444H16.3282H22.9375V31.0879C22.9375 31.9907 22.95 32.7314 22.9625 32.7314C22.975 32.7314 23.075 32.6782 23.1813 32.6157C23.2907 32.5509 23.6532 32.3518 23.9938 32.1713C25.1094 31.5764 25.6282 31.2152 26.3219 30.5532C26.6594 30.2291 27.2438 29.5694 27.4125 29.3217C27.7594 28.8055 28.2125 27.8449 28.3094 27.4166C28.325 27.3426 28.375 27.1273 28.4188 26.9398C28.575 26.2685 28.5875 25.5648 28.45 24.7685C28.3719 24.3148 28.1219 23.5509 27.8844 23.0439C27.7625 22.7847 27.4188 22.2384 27.1969 21.956C26.7688 21.4097 26.0813 20.7338 25.575 20.3611C25.1407 20.0393 24.3938 19.5879 23.7032 19.2291C23.5313 19.1412 23.2969 19.0162 23.1782 18.956C23.0625 18.8935 22.9594 18.8426 22.9532 18.8426C22.9438 18.8426 22.9375 19.6713 22.9375 20.6828ZM25.5594 22.6018C25.7844 22.8472 25.8844 22.9838 25.9907 23.1921C26.4375 24.0509 26.5907 24.5092 26.6907 25.2708C26.7438 25.7014 26.6875 26.4514 26.5625 26.9768C26.3969 27.6574 25.9782 28.4884 25.5594 28.9722C25.3282 29.2407 24.9782 29.6134 24.8125 29.7685C24.7532 29.8264 24.75 29.8055 24.75 25.7662V21.706L25.0094 21.993C25.1532 22.1504 25.4 22.4236 25.5594 22.6018ZM7.90629 25.7801V29.5254L7.83129 29.456C7.79067 29.4189 7.69379 29.3078 7.61567 29.2129C6.95317 28.3889 6.92504 28.3402 6.65942 27.6551C6.45317 27.1111 6.44692 27.0972 6.35942 26.6898C6.19692 25.9398 6.22192 25.3518 6.45629 24.4745C6.56879 24.0578 6.89379 23.2801 7.05004 23.0532C7.20317 22.8264 7.85942 22.0416 7.90004 22.037C7.90317 22.037 7.90629 23.7222 7.90629 25.7801ZM22.7813 25.9838V28.0787H16.25H9.71879V25.9838V23.8889H16.25H22.7813V25.9838Z" fill="#CB9351" fill-opacity="0.7"/>
<path d="M75.8438 19.2614C75.1781 19.31 74.8781 19.3517 74.1562 19.4975C73.8531 19.56 73.1188 19.7822 72.6031 19.9674C72.4094 20.0369 72.2406 20.0924 72.2281 20.0924C72.1938 20.0924 71.5969 20.3748 71.525 20.4258C71.4938 20.4466 71.4562 20.4628 71.4438 20.4628C71.3875 20.4628 70.6875 20.9929 70.575 21.1225C70.5094 21.1989 70.4469 21.266 70.4375 21.273C70.4281 21.2799 70.3719 21.347 70.3094 21.4234C69.9 21.9281 69.7094 22.4489 69.7094 23.0785C69.7063 23.7984 69.8938 24.3031 70.35 24.8077C70.5844 25.0646 70.7875 25.2429 71.0406 25.4049C71.1594 25.4813 71.2844 25.5646 71.3219 25.5901C71.4469 25.6758 71.9156 25.9165 72.2344 26.0554C73.1375 26.4535 74.2594 26.7707 75.6438 27.0207C75.8844 27.0646 76.1063 27.1017 76.1406 27.1017C76.175 27.104 76.5406 27.1572 76.9531 27.2197C77.3656 27.2845 77.7875 27.3494 77.8906 27.3633C78.2375 27.4119 78.6344 27.5021 78.7906 27.5646C78.875 27.597 79.0031 27.6734 79.075 27.7336C79.2031 27.8378 79.4125 28.0994 79.425 28.1711C79.4313 28.1896 79.45 28.2429 79.4688 28.2892C79.5125 28.3841 79.4875 28.7359 79.4375 28.773C79.4281 28.7799 79.3875 28.8355 79.3438 28.9003C79.25 29.0415 78.9969 29.2452 78.8281 29.317C78.4 29.4998 76.9688 29.567 76.1375 29.4466C75.9688 29.4211 75.7781 29.3933 75.7188 29.3864C75.6594 29.3795 75.4469 29.3308 75.25 29.2799C75.0531 29.229 74.7719 29.1549 74.625 29.1179C73.9469 28.9443 72.4688 28.3887 72.0094 28.1341L71.9094 28.0785L71.8188 28.1433C71.7687 28.1781 71.525 28.347 71.2781 28.5183C70.1594 29.2961 69.2812 29.9258 69.2812 29.9535C69.2812 29.9674 69.2969 29.9767 69.3125 29.9767C69.3313 29.9767 69.4344 30.0415 69.5406 30.1225C70.0063 30.4697 70.4781 30.7614 70.975 31.0068C71.1438 31.0901 71.2844 31.1572 71.2906 31.1572C71.2969 31.1572 71.4281 31.2105 71.5812 31.2753C71.7344 31.3424 72.0563 31.4605 72.2969 31.5392C72.85 31.7197 72.8656 31.7221 73.2031 31.7961C74.15 31.9975 74.1125 31.9906 74.8281 32.0693C75.55 32.1503 75.7875 32.1619 76.8125 32.1619C78.875 32.1596 80.1813 32.0021 81.0781 31.6457C81.7469 31.3795 82.1156 31.1734 82.6313 30.7753C82.8688 30.5924 83.1344 30.3308 83.2469 30.1642C83.2844 30.1133 83.325 30.0693 83.3406 30.0693C83.3531 30.0693 83.4156 29.9883 83.4781 29.8887C83.8562 29.2869 84.0312 28.729 84.0312 28.1248C84.0312 27.7892 83.9875 27.5878 83.8406 27.2452C83.75 27.0345 83.4219 26.4952 83.3438 26.4304C83.325 26.4142 83.2438 26.3123 83.1625 26.2058C82.8813 25.8332 82.5563 25.6248 81.7656 25.317C81.125 25.0693 80.9469 25.0068 80.5719 24.9095C80.1969 24.8123 80.0906 24.7915 79.375 24.6758C78.2844 24.4998 78.1719 24.4836 77.7031 24.4211C77.5844 24.4049 77.2375 24.3517 76.9375 24.3008C76.6375 24.2498 76.2656 24.1873 76.1156 24.1642C75.7562 24.1109 75.4875 24.0438 75.1406 23.9234C74.9156 23.847 74.8281 23.8031 74.7094 23.7012C74.6281 23.6341 74.5438 23.5299 74.5188 23.472C74.4563 23.3262 74.3938 22.8725 74.4188 22.7498C74.4688 22.5068 74.725 22.2707 75.1094 22.1202C75.5312 21.9512 75.6781 21.9327 76.5781 21.9327C77.425 21.9327 77.425 21.9327 78.1 22.0832C78.5063 22.1758 78.7438 22.2429 78.9375 22.3216C78.9969 22.347 79.1375 22.4026 79.2438 22.4443C79.4406 22.523 79.7063 22.6503 79.7656 22.6989C79.7844 22.7105 79.8469 22.7498 79.9094 22.7822C79.9688 22.817 80.1281 22.9234 80.2625 23.0183C80.3938 23.1156 80.5156 23.1943 80.5281 23.1943C80.5406 23.1943 80.6906 23.0947 80.8625 22.9744C81.0312 22.854 81.2719 22.6827 81.3938 22.597C81.9031 22.2406 82.75 21.6387 83.0719 21.4049C83.4156 21.1572 83.4156 21.1572 83.3562 21.1086C83.2875 21.0508 82.7625 20.7498 82.6156 20.6827C82.5594 20.6595 82.4375 20.597 82.3406 20.5438C82.1375 20.4373 82.1375 20.4373 81.7656 20.2591C80.5125 19.6549 79.3156 19.3517 77.8438 19.2614C77.3813 19.2336 76.2188 19.2336 75.8438 19.2614Z" fill="#CB9351" fill-opacity="0.7"/>
<path d="M58.5625 19.2846C57.8156 19.3077 56.8375 19.4235 56.1719 19.5647C54.8687 19.8401 53.5656 20.4142 52.7531 21.0739C52.6906 21.1248 52.5875 21.2059 52.5219 21.2545C52.4562 21.3031 52.4094 21.3424 52.4156 21.3424C52.425 21.3424 52.4062 21.3656 52.375 21.3934C52.1812 21.567 52.1281 21.6179 52.0625 21.7012C52.0187 21.7522 51.9375 21.8401 51.8781 21.898C51.7469 22.0253 51.3875 22.567 51.2562 22.8355C51.2344 22.8725 51.2031 22.935 51.1844 22.9744C51.1625 23.0114 51.1437 23.0508 51.1406 23.06C51.1344 23.0716 51.1281 23.0832 51.125 23.0901C51.1219 23.0971 51.1156 23.1086 51.1094 23.1179C51.1062 23.1295 51.0875 23.1642 51.0687 23.1989C51.05 23.2336 51 23.3586 50.9562 23.4767C50.5125 24.6989 50.4875 26.3517 50.8875 27.6619C50.9594 27.898 51.0312 28.0901 51.0844 28.1943C51.0937 28.2128 51.1062 28.2452 51.1125 28.2637C51.1187 28.2823 51.1344 28.317 51.1531 28.3448C51.2125 28.4327 51.3062 28.5994 51.3281 28.6573C51.3875 28.8008 51.7812 29.3563 51.8844 29.4373C51.9187 29.4674 51.9344 29.4906 51.9187 29.4906C51.9031 29.4906 51.9062 29.4998 51.9219 29.5091C51.9406 29.5184 52.0375 29.6133 52.1406 29.7221C52.525 30.1341 53.1531 30.6156 53.7031 30.9188C54.0594 31.1156 54.6719 31.3841 54.9281 31.4582C55.0094 31.4813 55.2187 31.5438 55.3906 31.5948C55.6969 31.6897 55.8469 31.7267 56.0625 31.7591C56.1219 31.7707 56.2875 31.7985 56.4281 31.8262C57.4 32.0137 57.8594 32.0461 59.4687 32.0461C61.0844 32.0461 61.2875 32.0323 62.4312 31.8147C62.9156 31.7244 63.1531 31.6642 63.75 31.4767C64.0219 31.3934 64.6219 31.1364 64.8344 31.0137C64.9437 30.9535 65.0406 30.9026 65.0531 30.9026C65.0812 30.9026 65.4031 30.6989 65.6406 30.5323C66.0156 30.2684 66.0875 30.2128 66.2031 30.104C66.2719 30.0392 66.3437 29.9721 66.3656 29.9535C66.3844 29.935 66.4656 29.861 66.5437 29.7892C66.7062 29.6387 66.9437 29.3448 67.1125 29.0855C67.1781 28.9836 67.2406 28.8957 67.2531 28.8887C67.2969 28.8633 67.5156 28.4235 67.625 28.1364C67.825 27.6272 67.975 26.9975 68.0156 26.516C68.025 26.4142 68.0406 26.273 68.0469 26.1989C68.0687 26.0508 68.0687 25.2035 68.05 24.9767C67.9812 24.148 67.6875 23.1573 67.3531 22.6202C67.3094 22.5485 67.2687 22.4836 67.2687 22.4767C67.2656 22.4698 67.2562 22.4536 67.2437 22.442C67.2344 22.4281 67.1656 22.3355 67.0937 22.2336C66.8875 21.9443 66.6344 21.6387 66.5469 21.567C66.5031 21.5323 66.475 21.5045 66.4844 21.5045C66.4937 21.5045 66.475 21.486 66.4469 21.4628C66.4156 21.4397 66.3281 21.3633 66.25 21.2938C66.0937 21.1526 65.5281 20.7313 65.4 20.6596C65.3531 20.6341 65.2344 20.567 65.1344 20.5091C64.7125 20.2684 64.3094 20.0878 63.7625 19.8957C63.3812 19.7637 62.5562 19.5531 62.2062 19.5022C62.0844 19.4836 61.85 19.4489 61.6844 19.4235C61.2219 19.3517 60.6656 19.3054 60.0312 19.2823C59.3906 19.2591 59.3062 19.2591 58.5625 19.2846ZM59.75 22.3494C60.1969 22.3841 60.6406 22.4489 60.9437 22.5253C61.1937 22.5855 61.6719 22.773 61.8937 22.8957C62.1687 23.0461 62.6406 23.4073 62.6 23.4373C62.5906 23.4443 62.5969 23.4489 62.6156 23.4489C62.6531 23.4489 62.7875 23.6063 62.8937 23.7753C63.1 24.0971 63.2875 24.6573 63.325 25.0577C63.3406 25.2151 63.3437 26.1387 63.3281 26.2591C63.25 26.8748 63.0625 27.4582 62.825 27.8008C62.6687 28.0299 62.5969 28.1086 62.3656 28.2961C62.1625 28.4605 62.0937 28.5022 61.7031 28.6966C61.4812 28.8054 60.8094 28.9952 60.4469 29.0485C59.9469 29.1225 59.1469 29.1549 58.75 29.1179C58.6375 29.1086 58.4844 29.0948 58.4062 29.0878C58.1375 29.067 57.625 28.9582 57.4 28.8748C57.3187 28.8448 57.2437 28.8193 57.2312 28.8216C57.2187 28.8239 56.9594 28.7128 56.6719 28.5809C56.6031 28.5485 56.5937 28.5415 56.3781 28.3957C56.2344 28.2961 55.9062 28.0045 55.9062 27.9767C55.9062 27.9698 55.8625 27.9188 55.8125 27.861C55.6781 27.7151 55.5437 27.4628 55.4375 27.1642C55.3562 26.9281 55.325 26.8077 55.2531 26.4466C55.2156 26.2637 55.2156 25.192 55.2531 24.9998C55.3219 24.6549 55.3844 24.4188 55.4687 24.1989C55.5656 23.9512 55.7219 23.6758 55.7969 23.6179C55.8219 23.5994 55.8437 23.5739 55.8437 23.56C55.8437 23.5091 56.3156 23.0878 56.4656 23.0091C56.5312 22.9721 56.5969 22.9304 56.6094 22.9188C56.6656 22.8494 57.4031 22.5554 57.6719 22.4929C58.0656 22.4026 58.7156 22.3262 59.1875 22.3193C59.2656 22.317 59.5187 22.3309 59.75 22.3494Z" fill="#CB9351" fill-opacity="0.7"/>
<path d="M92.9906 19.3517C92.5312 19.391 91.7281 19.5114 91.375 19.5947C90.7375 19.7452 89.8625 20.0392 89.4906 20.229C89.4187 20.266 89.2812 20.3285 89.1875 20.3702C88.8562 20.5137 88.2 20.9142 87.7656 21.2383C87.3844 21.5183 87.0906 21.7591 87.1219 21.7591C87.1312 21.7591 87.1156 21.7707 87.0875 21.7822C87.0281 21.8077 86.625 22.2498 86.4656 22.4651C86.4094 22.5415 86.3469 22.6109 86.3312 22.6202C86.3094 22.6318 86.3094 22.6387 86.3281 22.6387C86.3469 22.6387 86.3469 22.6457 86.325 22.6572C86.2625 22.6873 86.05 23.0484 85.8969 23.3795C85.8219 23.5392 85.6125 24.1179 85.575 24.2591C85.4594 24.7244 85.4062 25.1688 85.4062 25.7221C85.4062 26.6133 85.5281 27.1827 85.8906 27.9628C86.0406 28.2869 86.2719 28.6804 86.3281 28.7082C86.3469 28.7197 86.3469 28.7267 86.3281 28.7267C86.3094 28.7267 86.3125 28.7359 86.3312 28.7452C86.35 28.7545 86.425 28.8447 86.4969 28.9466C86.6625 29.1827 86.9375 29.5183 87.0094 29.5693C87.0375 29.5924 87.0625 29.6179 87.0625 29.6271C87.0625 29.6364 87.0875 29.6642 87.1187 29.6896C87.1469 29.7128 87.2125 29.7753 87.2656 29.8262C87.7594 30.3239 88.5687 30.8748 89.3594 31.2545C89.6844 31.4096 90.4562 31.7174 90.5937 31.7475C90.6375 31.7568 90.7906 31.8008 90.9375 31.8447C91.4312 31.9952 91.4906 32.0114 91.6125 32.0346C91.6781 32.0461 91.925 32.0924 92.1562 32.1387C92.8969 32.2822 93.075 32.2961 94.4 32.3077C95.6687 32.317 96.1187 32.2984 96.8031 32.1989C97.3125 32.1271 97.9437 31.9975 98.225 31.9119C98.3687 31.8679 98.575 31.8031 98.6875 31.7683C98.8 31.7359 99 31.6549 99.1344 31.5947C99.2687 31.5322 99.3875 31.4813 99.3969 31.4813C99.4219 31.4813 99.85 31.2568 99.9375 31.1989C99.9812 31.1688 100.081 31.1063 100.159 31.06C100.419 30.9072 100.797 30.6179 101.066 30.3702C101.216 30.2336 101.594 29.7869 101.594 29.7475C101.594 29.7359 101.562 29.7174 101.525 29.7082C101.487 29.7012 101.356 29.6387 101.231 29.5693C101.109 29.5021 100.966 29.4281 100.912 29.4049C100.862 29.3818 100.634 29.2683 100.409 29.1549C100.181 29.0392 99.9719 28.935 99.9437 28.9234C99.9156 28.9096 99.8844 28.8933 99.875 28.8864C99.8656 28.8771 99.7406 28.8123 99.5937 28.7429C99.4469 28.6711 99.1594 28.5276 98.9531 28.4258C98.75 28.3239 98.5781 28.2406 98.5719 28.2406C98.5687 28.2406 98.4844 28.1989 98.3875 28.148C98.1844 28.0438 98.1375 28.0346 98.1094 28.1017C98.0687 28.1989 97.7687 28.442 97.4969 28.5994C97.1 28.8332 96.5594 29.0276 96.0281 29.1295C95.3656 29.2591 95.1 29.2846 94.4219 29.2984C93.7125 29.3123 93.3156 29.2799 92.9312 29.1781C92.8062 29.1457 92.6687 29.1109 92.625 29.104C92.5344 29.0878 92.1812 28.9281 92.0812 28.8563C92.0406 28.8285 91.9687 28.7822 91.9187 28.7498C91.8219 28.685 91.6 28.4975 91.4812 28.3748C91.4406 28.3332 91.3969 28.2869 91.3844 28.2753C91.2781 28.1734 91.1875 28.0785 91.1875 28.067C91.1875 28.0577 91.1469 28.0114 91.0969 27.9651C90.8375 27.7221 90.5437 27.141 90.4094 26.6202C90.275 26.0878 90.3187 25.1966 90.5156 24.5137C90.6219 24.1457 90.8844 23.6457 91.0094 23.567C91.0406 23.5508 91.0625 23.5276 91.0625 23.516C91.0625 23.4929 91.1312 23.4258 91.2437 23.3401C91.2812 23.31 91.3125 23.2799 91.3125 23.273C91.3125 23.2429 91.8594 22.9003 92.0469 22.8123C92.3031 22.692 92.8594 22.4952 93.125 22.4327C93.8531 22.2614 94.2781 22.2221 94.8344 22.2753C95.3375 22.3239 95.8281 22.4443 96.0562 22.5762C96.15 22.6295 96.275 22.7012 96.3344 22.7383C96.3969 22.773 96.5187 22.8517 96.6062 22.9119C96.6969 22.9721 96.8781 23.0878 97.0125 23.1711C97.1469 23.2545 97.3656 23.391 97.4969 23.4767C97.6281 23.5623 97.75 23.6341 97.7687 23.6341C97.7875 23.6341 97.8281 23.6549 97.8594 23.6804C97.9125 23.7244 97.9156 23.7244 98.1062 23.6526C98.2094 23.6109 98.375 23.5415 98.4687 23.4952C98.5625 23.4466 98.6969 23.3864 98.7656 23.3586C98.8344 23.3308 98.9187 23.2961 98.9531 23.2799C98.9875 23.266 99.1094 23.2082 99.2281 23.1526C99.3437 23.0994 99.45 23.0554 99.4656 23.0554C99.4781 23.0554 99.6344 22.9883 99.8094 22.9049C99.9875 22.8216 100.137 22.7545 100.147 22.7545C100.156 22.7545 100.291 22.6966 100.447 22.6225C100.606 22.5508 100.791 22.4697 100.859 22.442C100.928 22.4142 101.075 22.3471 101.187 22.2961C101.3 22.2429 101.478 22.1665 101.587 22.1248C101.778 22.0508 101.819 22.0068 101.741 21.9582C101.716 21.9443 101.606 21.8494 101.497 21.7475C101.212 21.4859 100.647 21.0855 100.284 20.8887C100.187 20.8378 100.091 20.7776 100.066 20.7568C100.044 20.7336 100.012 20.7174 99.9969 20.7174C99.9812 20.7174 99.9437 20.7012 99.9156 20.6827C99.8125 20.6202 99.4219 20.4096 99.3406 20.3725C99.2969 20.3517 99.175 20.2915 99.0719 20.2383C98.6281 20.0091 97.5906 19.6827 96.9437 19.5693C96.6625 19.5207 95.8937 19.4234 95.4687 19.3841C95.0437 19.3424 93.35 19.3216 92.9906 19.3517Z" fill="#CB9351" fill-opacity="0.7"/>
<path d="M33.5844 19.435C33.5719 19.4443 33.5625 22.2012 33.5625 25.56V31.6665H38.2156C41.1469 31.6665 42.9938 31.6572 43.2063 31.641C43.3938 31.6295 43.9281 31.5809 44.3906 31.5369C44.8562 31.4906 45.2906 31.4559 45.3562 31.4559C45.425 31.4559 45.4938 31.4489 45.5094 31.442C45.5281 31.435 45.6062 31.4234 45.6844 31.4188C45.7625 31.4142 45.8406 31.4003 45.8562 31.3887C45.8719 31.3772 45.9 31.3748 45.9219 31.3795C45.9844 31.398 46.65 31.2684 46.9219 31.185C47.0531 31.1457 47.4625 30.9489 47.6406 30.8401C47.9781 30.6341 48.3 30.3772 48.5156 30.1364C48.6031 30.0415 48.6781 29.9605 48.6875 29.9535C48.6969 29.9466 48.7469 29.8795 48.7969 29.8031C48.85 29.7267 48.9 29.6596 48.9156 29.6572C48.9281 29.6526 48.9375 29.6295 48.9375 29.604C48.9375 29.5809 48.9531 29.56 48.9719 29.56C48.9906 29.56 49 29.5438 48.9875 29.5253C48.9781 29.5068 48.9875 29.4906 49.0063 29.4906C49.025 29.4906 49.0312 29.4836 49.0219 29.4744C49.0094 29.4674 49.0156 29.4489 49.0312 29.4327C49.0469 29.4188 49.0656 29.3864 49.0719 29.3609C49.075 29.3378 49.0906 29.3054 49.1031 29.2915C49.15 29.2336 49.25 28.8633 49.2844 28.6109C49.3219 28.3355 49.3031 27.817 49.25 27.604C49.2312 27.5392 49.2125 27.4674 49.2094 27.442C49.1844 27.3378 49.1469 27.2313 49.1313 27.2105C49.1188 27.1966 49.1062 27.1711 49.1031 27.1503C49.1 27.1318 49.075 27.0832 49.0469 27.0461C49.0219 27.0091 49 26.9605 49 26.9373C49 26.9165 48.9875 26.898 48.9719 26.898C48.9563 26.898 48.9344 26.8656 48.9219 26.8285C48.9094 26.7892 48.8906 26.7591 48.8813 26.7591C48.8688 26.7591 48.825 26.7059 48.7844 26.6434C48.7406 26.5809 48.6531 26.4767 48.5875 26.4119C48.5219 26.3471 48.4688 26.2892 48.4688 26.2822C48.4688 26.2684 48.1375 26.0253 48.0281 25.9605C47.8344 25.8424 47.3688 25.6665 47.1875 25.6387C47.0312 25.6156 46.9625 25.604 46.6625 25.5438C46.4969 25.5091 46.3188 25.4744 46.2656 25.4651C46.1781 25.4512 46.1844 25.4466 46.3906 25.3957C46.5125 25.3656 46.6531 25.317 46.7063 25.2869C46.7594 25.2568 46.8125 25.2313 46.8281 25.2313C46.8844 25.2313 47.6562 24.6572 47.6562 24.6133C47.6562 24.5971 47.6656 24.5832 47.6813 24.5832C47.6938 24.5832 47.7375 24.5438 47.7812 24.4952C47.825 24.4489 47.8656 24.4049 47.875 24.398C47.8844 24.391 47.9313 24.3285 47.9812 24.2591C48.1344 24.0484 48.1406 24.0392 48.1625 24.0276C48.2125 23.9998 48.3438 23.6943 48.4031 23.479C48.525 23.0322 48.5188 22.4859 48.3875 22.1295C48.3625 22.06 48.3344 21.9721 48.325 21.935C48.3156 21.898 48.2875 21.854 48.2656 21.8378C48.2438 21.8193 48.2156 21.7637 48.2031 21.7128C48.1906 21.6619 48.1719 21.6202 48.1594 21.6202C48.1469 21.6202 48.1094 21.5762 48.0781 21.5207C48.0031 21.3957 47.7 21.0508 47.5969 20.9721C47.5531 20.9397 47.4531 20.8609 47.375 20.7984C47.2219 20.6734 47.025 20.5415 46.8094 20.4211C46.7344 20.3795 46.5875 20.2961 46.4844 20.2383C46.3813 20.1804 46.2688 20.1248 46.2344 20.1133C46.2 20.1017 46.15 20.0832 46.125 20.0693C45.9156 19.9674 45.4938 19.8008 45.3875 19.7776C45.3156 19.7614 45.2094 19.7313 45.1531 19.7082C44.9969 19.6503 44.5281 19.5369 44.4969 19.5508C44.4812 19.5577 44.4688 19.5531 44.4688 19.5415C44.4688 19.5299 44.4375 19.5184 44.4 19.5184C44.3594 19.516 44.2156 19.4975 44.0781 19.4767C43.8469 19.4397 43.4313 19.435 38.7156 19.4281C35.9062 19.4234 33.5969 19.4281 33.5844 19.435ZM41.4938 21.9234C41.9281 21.9466 42.3656 22.0114 42.5875 22.0832C42.6687 22.1109 42.7594 22.1364 42.7875 22.141C42.9094 22.1596 43.3438 22.4651 43.3438 22.5322C43.3438 22.5484 43.3719 22.5901 43.4062 22.6202C43.4375 22.6526 43.4563 22.685 43.4469 22.6943C43.4375 22.7012 43.4438 22.7082 43.4656 22.7082C43.4875 22.7082 43.5 22.7221 43.4906 22.7406C43.4812 22.7568 43.4906 22.7846 43.5094 22.7984C43.5625 22.8378 43.5625 23.4304 43.5094 23.442C43.4875 23.4489 43.4688 23.4697 43.4688 23.4906C43.4688 23.5762 43.275 23.8285 43.1313 23.9281C42.9531 24.0554 42.7656 24.1503 42.6781 24.1596C42.6406 24.1642 42.6031 24.1758 42.5938 24.185C42.5844 24.1943 42.5656 24.2012 42.5469 24.2012C42.5312 24.2012 42.4375 24.2197 42.3438 24.2406C41.9219 24.3332 41.7594 24.3401 39.9531 24.3401H38.2031L38.1969 23.148C38.1937 22.4929 38.1969 21.942 38.2031 21.9258C38.2156 21.9026 38.5156 21.898 39.6625 21.9003C40.4594 21.9026 41.2812 21.9142 41.4938 21.9234ZM42.3906 26.7452C42.5625 26.766 42.7375 26.7892 42.7812 26.7938C42.9062 26.8054 43.0406 26.8309 43.1094 26.8517C43.2937 26.9119 43.4656 26.9721 43.5625 27.0137C43.7156 27.0785 43.9969 27.3077 44.0531 27.4119C44.0781 27.4605 44.1125 27.4998 44.1313 27.4998C44.1469 27.4998 44.1531 27.5091 44.1406 27.5207C44.1313 27.5322 44.1375 27.5484 44.1562 27.5577C44.175 27.567 44.1813 27.5809 44.1719 27.5924C44.1625 27.604 44.1687 27.6179 44.1875 27.6272C44.2063 27.6364 44.2125 27.6526 44.2 27.6642C44.1906 27.6758 44.1969 27.6989 44.2125 27.7151C44.2281 27.7313 44.2406 27.8517 44.2406 27.9859C44.2406 28.1202 44.2281 28.2406 44.2125 28.2568C44.1969 28.273 44.1906 28.2961 44.2 28.3077C44.2125 28.3193 44.2063 28.3355 44.1906 28.3424C44.175 28.3494 44.1531 28.3841 44.1438 28.4165C44.1031 28.5299 43.9875 28.692 43.8688 28.7984C43.75 28.9049 43.4187 29.0901 43.3688 29.0785C43.3562 29.0762 43.3438 29.0832 43.3438 29.0924C43.3438 29.104 43.325 29.1133 43.3063 29.1156C43.2844 29.1156 43.1813 29.141 43.0781 29.1665C42.975 29.1943 42.7719 29.2383 42.625 29.266C42.375 29.31 42.2531 29.3147 40.3688 29.3216L38.375 29.3309V28.0253C38.375 27.3077 38.3844 26.7128 38.4 26.7035C38.4125 26.692 39.2438 26.6897 40.25 26.6966C41.75 26.7059 42.1344 26.7151 42.3906 26.7452Z" fill="#CB9351" fill-opacity="0.7"/>
<path d="M114.297 21.9836L114.319 24.2822H113.622C113.238 24.2822 111.913 24.2892 110.681 24.2984L108.438 24.3123L108.434 22.6943C108.434 21.8054 108.428 20.8933 108.425 20.6711C108.419 20.4489 108.412 20.1433 108.409 19.9929L108.406 19.722H105.906C103.928 19.722 103.406 19.729 103.406 19.7498C103.406 19.766 103.406 22.5507 103.406 25.9373V32.0947H105.9H108.391L108.4 29.6109C108.406 27.6549 108.416 27.1248 108.447 27.1179C108.466 27.1132 109.531 27.104 110.812 27.097C113.825 27.0785 113.691 27.0785 114.009 27.0808L114.281 27.0832V29.5716V32.06L116.088 32.0646C117.078 32.0669 118.2 32.0693 118.578 32.0716H119.266L119.269 25.8841L119.272 19.6989L117.519 19.6966C116.556 19.6943 115.431 19.6896 115.019 19.6873L114.272 19.6827L114.297 21.9836Z" fill="#CB9351" fill-opacity="0.7"/>
</g>
<defs>
<clipPath id="clip0_138_469">
<rect width="120" height="50" fill="white"/>
</clipPath>
</defs>
</svg>
