<svg width="91" height="50" viewBox="0 0 91 50" fill="none" xmlns="http://www.w3.org/2000/svg">
<g clip-path="url(#clip0_138_467)">
<path d="M44.9622 24.0708L47.9697 15.5292L50.9622 24.0708H44.9622ZM55.721 10.4875H40.1585L31.0835 33.0917L47.9697 25.5188L65.576 33.7146L55.721 10.4875ZM47.9697 27.4792L19.811 40.1292H75.146L47.9697 27.4792ZM90.3335 10.4583V16.2292H82.586V40.0833H79.2785L70.1435 35.8334V16.2292H62.4297V10.4583H90.3335ZM26.1035 35.1334C28.1585 34.1792 28.511 33 28.511 31.9417V27.5H17.336V33.5292C17.337 33.9432 17.0421 34.3406 16.5162 34.6339C15.9903 34.9273 15.2763 35.0927 14.531 35.0938C12.9785 35.0938 11.8235 34.3938 11.8235 33.5313V16.4438C11.8235 15.5813 12.9785 14.8813 14.531 14.8813C15.2763 14.8818 15.9907 15.0467 16.5173 15.3396C17.0439 15.6326 17.3397 16.0297 17.3397 16.4438V22.5125H28.496V16.2188C28.496 12.7396 24.401 9.8771 14.4335 9.87085C4.2035 9.87085 0.333496 12.7459 0.333496 16.225V34.0646C0.333496 37.5125 5.261 40.1208 11.5647 40.1208H15.0222L26.1035 35.1334Z" fill="#CB9351" fill-opacity="0.7"/>
</g>
<defs>
<clipPath id="clip0_138_467">
<rect width="90" height="50" fill="white" transform="translate(0.333496)"/>
</clipPath>
</defs>
</svg>
