<svg width="50" height="50" viewBox="0 0 50 50" fill="none" xmlns="http://www.w3.org/2000/svg">
<g id="local_shipping 2">
<path id="Vector" d="M12.4999 41.6668C10.7638 41.6668 9.28811 41.0592 8.07283 39.8439C6.85756 38.6286 6.24992 37.1529 6.24992 35.4168H2.08325V12.5002C2.08325 11.3543 2.49124 10.3734 3.30721 9.55745C4.12318 8.74148 5.10409 8.3335 6.24992 8.3335H35.4166V16.6668H41.6666L47.9166 25.0002V35.4168H43.7499C43.7499 37.1529 43.1423 38.6286 41.927 39.8439C40.7117 41.0592 39.236 41.6668 37.4999 41.6668C35.7638 41.6668 34.2881 41.0592 33.0728 39.8439C31.8576 38.6286 31.2499 37.1529 31.2499 35.4168H18.7499C18.7499 37.1529 18.1423 38.6286 16.927 39.8439C15.7117 41.0592 14.236 41.6668 12.4999 41.6668ZM12.4999 37.5002C13.0902 37.5002 13.585 37.3005 13.9843 36.9012C14.3836 36.5019 14.5833 36.0071 14.5833 35.4168C14.5833 34.8266 14.3836 34.3318 13.9843 33.9325C13.585 33.5331 13.0902 33.3335 12.4999 33.3335C11.9096 33.3335 11.4148 33.5331 11.0155 33.9325C10.6162 34.3318 10.4166 34.8266 10.4166 35.4168C10.4166 36.0071 10.6162 36.5019 11.0155 36.9012C11.4148 37.3005 11.9096 37.5002 12.4999 37.5002ZM6.24992 31.2502H7.91658C8.50686 30.6252 9.18395 30.1217 9.94783 29.7397C10.7117 29.3578 11.5624 29.1668 12.4999 29.1668C13.4374 29.1668 14.2881 29.3578 15.052 29.7397C15.8159 30.1217 16.493 30.6252 17.0833 31.2502H31.2499V12.5002H6.24992V31.2502ZM37.4999 37.5002C38.0902 37.5002 38.585 37.3005 38.9843 36.9012C39.3836 36.5019 39.5833 36.0071 39.5833 35.4168C39.5833 34.8266 39.3836 34.3318 38.9843 33.9325C38.585 33.5331 38.0902 33.3335 37.4999 33.3335C36.9096 33.3335 36.4148 33.5331 36.0155 33.9325C35.6162 34.3318 35.4166 34.8266 35.4166 35.4168C35.4166 36.0071 35.6162 36.5019 36.0155 36.9012C36.4148 37.3005 36.9096 37.5002 37.4999 37.5002ZM35.4166 27.0835H44.2708L39.5833 20.8335H35.4166V27.0835Z" fill="#007bff"/>
</g>
</svg>
