<svg width="60" height="60" viewBox="0 0 60 60" fill="none" xmlns="http://www.w3.org/2000/svg">
<path d="M30 41.1875C34.125 37.8542 37.2396 34.6458 39.3438 31.5625C41.4479 28.4792 42.5 25.5833 42.5 22.875C42.5 20.5417 42.0729 18.5521 41.2188 16.9062C40.3646 15.2604 39.3125 13.9271 38.0625 12.9062C36.8125 11.8854 35.4583 11.1458 34 10.6875C32.5417 10.2292 31.2083 10 30 10C28.7917 10 27.4583 10.2292 26 10.6875C24.5417 11.1458 23.1875 11.8854 21.9375 12.9062C20.6875 13.9271 19.6354 15.2604 18.7812 16.9062C17.9271 18.5521 17.5 20.5417 17.5 22.875C17.5 25.5833 18.5521 28.4792 20.6562 31.5625C22.7604 34.6458 25.875 37.8542 30 41.1875ZM30 47.5C24.125 43.1667 19.7396 38.9583 16.8438 34.875C13.9479 30.7917 12.5 26.7917 12.5 22.875C12.5 19.9167 13.0312 17.3229 14.0938 15.0938C15.1562 12.8646 16.5208 11 18.1875 9.5C19.8542 8 21.7292 6.875 23.8125 6.125C25.8958 5.375 27.9583 5 30 5C32.0417 5 34.1042 5.375 36.1875 6.125C38.2708 6.875 40.1458 8 41.8125 9.5C43.4792 11 44.8438 12.8646 45.9062 15.0938C46.9688 17.3229 47.5 19.9167 47.5 22.875C47.5 26.7917 46.0521 30.7917 43.1562 34.875C40.2604 38.9583 35.875 43.1667 30 47.5ZM30 27.5C31.375 27.5 32.5521 27.0104 33.5312 26.0312C34.5104 25.0521 35 23.875 35 22.5C35 21.125 34.5104 19.9479 33.5312 18.9688C32.5521 17.9896 31.375 17.5 30 17.5C28.625 17.5 27.4479 17.9896 26.4688 18.9688C25.4896 19.9479 25 21.125 25 22.5C25 23.875 25.4896 25.0521 26.4688 26.0312C27.4479 27.0104 28.625 27.5 30 27.5ZM12.5 55V50H47.5V55H12.5Z" fill="#716E6E" fill-opacity="0.7"/>
</svg>
