<svg width="33" height="47" viewBox="0 0 33 47" fill="none" xmlns="http://www.w3.org/2000/svg">
<path d="M16.5 33.7554C20.2813 30.6998 23.1363 27.7588 25.0651 24.9325C26.994 22.1061 27.9584 19.4516 27.9584 16.9689C27.9584 14.83 27.5669 13.0062 26.7839 11.4976C26.0009 9.98888 25.0365 8.76666 23.8907 7.83089C22.7448 6.89513 21.5035 6.21718 20.1667 5.79704C18.8299 5.3769 17.6077 5.16683 16.5 5.16683C15.3924 5.16683 14.1702 5.3769 12.8334 5.79704C11.4966 6.21718 10.2552 6.89513 9.10942 7.83089C7.96358 8.76666 6.99917 9.98888 6.21619 11.4976C5.4332 13.0062 5.04171 14.83 5.04171 16.9689C5.04171 19.4516 6.00612 22.1061 7.93494 24.9325C9.86376 27.7588 12.7188 30.6998 16.5 33.7554ZM16.5 39.5418C11.1146 35.5696 7.09466 31.712 4.44014 27.9689C1.78563 24.2259 0.458374 20.5592 0.458374 16.9689C0.458374 14.2571 0.945353 11.8795 1.91931 9.8361C2.89327 7.7927 4.14414 6.0835 5.67192 4.7085C7.19969 3.3335 8.91844 2.30225 10.8282 1.61475C12.7379 0.927246 14.6285 0.583496 16.5 0.583496C18.3716 0.583496 20.2622 0.927246 22.1719 1.61475C24.0816 2.30225 25.8004 3.3335 27.3282 4.7085C28.8559 6.0835 30.1068 7.7927 31.0808 9.8361C32.0547 11.8795 32.5417 14.2571 32.5417 16.9689C32.5417 20.5592 31.2144 24.2259 28.5599 27.9689C25.9054 31.712 21.8855 35.5696 16.5 39.5418ZM16.5 21.2085C17.7605 21.2085 18.8394 20.7597 19.737 19.8621C20.6346 18.9646 21.0834 17.8856 21.0834 16.6252C21.0834 15.3647 20.6346 14.2858 19.737 13.3882C18.8394 12.4906 17.7605 12.0418 16.5 12.0418C15.2396 12.0418 14.1606 12.4906 13.2631 13.3882C12.3655 14.2858 11.9167 15.3647 11.9167 16.6252C11.9167 17.8856 12.3655 18.9646 13.2631 19.8621C14.1606 20.7597 15.2396 21.2085 16.5 21.2085ZM0.458374 46.4168V41.8335H32.5417V46.4168H0.458374Z" fill="#007bff"/>
</svg>
