<svg width="47" height="37" viewBox="0 0 47 37" fill="none" xmlns="http://www.w3.org/2000/svg">
<path d="M5.16671 36.8332C3.90629 36.8332 2.8273 36.3844 1.92973 35.4868C1.03216 34.5892 0.583374 33.5103 0.583374 32.2498V4.74984C0.583374 3.48942 1.03216 2.41043 1.92973 1.51286C2.8273 0.615289 3.90629 0.166504 5.16671 0.166504H41.8334C43.0938 0.166504 44.1728 0.615289 45.0704 1.51286C45.9679 2.41043 46.4167 3.48942 46.4167 4.74984V32.2498C46.4167 33.5103 45.9679 34.5892 45.0704 35.4868C44.1728 36.3844 43.0938 36.8332 41.8334 36.8332H5.16671ZM23.5 20.7915L5.16671 9.33317V32.2498H41.8334V9.33317L23.5 20.7915ZM23.5 16.2082L41.8334 4.74984H5.16671L23.5 16.2082ZM5.16671 9.33317V4.74984V32.2498V9.33317Z" fill="#CB9351"/>
</svg>
