<svg width="60" height="60" viewBox="0 0 60 60" fill="none" xmlns="http://www.w3.org/2000/svg">
<path d="M15 47.625L19.9375 45.625C19.5208 44.4167 19.1354 43.1875 18.7812 41.9375C18.4271 40.6875 18.1458 39.4375 17.9375 38.1875L15 40.1875V47.625ZM25 45H35C35.75 43.3333 36.3542 41.3021 36.8125 38.9062C37.2708 36.5104 37.5 34.0625 37.5 31.5625C37.5 27.4375 36.8125 23.5312 35.4375 19.8438C34.0625 16.1562 32.25 13.3125 30 11.3125C27.75 13.3125 25.9375 16.1562 24.5625 19.8438C23.1875 23.5312 22.5 27.4375 22.5 31.5625C22.5 34.0625 22.7292 36.5104 23.1875 38.9062C23.6458 41.3021 24.25 43.3333 25 45ZM30 32.5C28.625 32.5 27.4479 32.0104 26.4688 31.0312C25.4896 30.0521 25 28.875 25 27.5C25 26.125 25.4896 24.9479 26.4688 23.9688C27.4479 22.9896 28.625 22.5 30 22.5C31.375 22.5 32.5521 22.9896 33.5312 23.9688C34.5104 24.9479 35 26.125 35 27.5C35 28.875 34.5104 30.0521 33.5312 31.0312C32.5521 32.0104 31.375 32.5 30 32.5ZM45 47.625V40.1875L42.0625 38.1875C41.8542 39.4375 41.5729 40.6875 41.2188 41.9375C40.8646 43.1875 40.4792 44.4167 40.0625 45.625L45 47.625ZM30 4.9375C34.125 7.9375 37.2396 11.75 39.3438 16.375C41.4479 21 42.5 26.375 42.5 32.5L47.75 36C48.4583 36.4583 49.0104 37.0625 49.4062 37.8125C49.8021 38.5625 50 39.3542 50 40.1875V55L37.5625 50H22.4375L10 55V40.1875C10 39.3542 10.1979 38.5625 10.5938 37.8125C10.9896 37.0625 11.5417 36.4583 12.25 36L17.5 32.5C17.5 26.375 18.5521 21 20.6562 16.375C22.7604 11.75 25.875 7.9375 30 4.9375Z" fill="#CB9351"/>
</svg>
