<svg width="50" height="50" viewBox="0 0 50 50" fill="none" xmlns="http://www.w3.org/2000/svg">
<g id="secure-payment-icon 1" clip-path="url(#clip0_130_411)">
<g id="Group">
<path id="Vector" fill-rule="evenodd" clip-rule="evenodd" d="M35.2539 22.2535C36.5682 22.2535 37.736 23.0248 38.4644 24.2114C39.1927 23.0199 40.3605 22.2535 41.6748 22.2535C43.8843 22.2535 45.6746 24.429 45.6746 27.1136C45.6746 29.7983 43.8843 31.9737 41.6748 31.9737C40.3605 31.9737 39.1927 31.2024 38.4644 30.0158C37.736 31.2074 36.5682 31.9737 35.2539 31.9737C33.0444 31.9737 31.2541 29.7983 31.2541 27.1136C31.2541 24.429 33.0444 22.2535 35.2539 22.2535ZM15.9424 18.2587C20.3735 21.6701 24.3774 23.2869 27.8117 22.9062C28.0314 28.315 27.5675 32.9131 26.5015 36.7398H47.2534C47.5708 36.7398 47.8597 36.5816 48.0713 36.3245C48.2829 36.0674 48.4131 35.7164 48.4131 35.3308V16.8051H1.59098V35.3308C1.59098 35.7164 1.72119 36.0674 1.93278 36.3245C2.14437 36.5816 2.43327 36.7398 2.75065 36.7398H5.5542C4.50439 32.9131 3.99984 28.2607 4.11784 22.6787C8.15023 22.9408 12.1094 21.8778 15.9424 18.2587ZM25.8911 38.673C23.9136 44.2154 20.5119 47.9284 15.9871 50C11.5438 48.0273 8.1543 44.3983 6.15234 38.673H2.75065C1.99382 38.673 1.30615 38.2972 0.809733 37.6941C0.309245 37.0909 0 36.2553 0 35.3357V3.34223C0 2.42262 0.309245 1.58707 0.805664 0.978938C1.30615 0.375754 1.99382 0 2.75065 0H47.2534C48.0103 0 48.6979 0.375754 49.1943 0.978938C49.6908 1.58212 50 2.42262 50 3.33729V35.3258C50 36.2454 49.6908 37.081 49.1943 37.6842C48.6979 38.2874 48.0103 38.6681 47.2534 38.6681H25.8911V38.673ZM15.9505 21.2153C19.633 24.0532 22.9614 25.3931 25.8138 25.0766C26.0091 29.8428 25.5615 33.808 24.5565 37.0563L24.528 37.1453C24.4954 37.2441 24.467 37.343 24.4344 37.437L24.3978 37.5457C24.3693 37.6347 24.3368 37.7237 24.3083 37.8127L24.2716 37.9165C24.2391 38.0055 24.2065 38.0945 24.174 38.1835L24.1292 38.3071C24.1007 38.3813 24.0723 38.4555 24.0438 38.5296L23.9827 38.6779C22.3104 42.8706 19.5719 45.6788 15.9831 47.3203C12.4512 45.753 9.72087 43.0139 8.03223 38.6779L8.02002 38.6483L8.01595 38.6137L8.00374 38.584C7.97526 38.5049 7.94678 38.4307 7.91829 38.3516L7.90609 38.322L7.89388 38.2923L7.88167 38.2626L7.86947 38.233L7.85726 38.2033C7.82878 38.1242 7.80029 38.0451 7.77181 37.966L7.7596 37.9363L7.7474 37.9067L7.73519 37.877C7.6945 37.7583 7.65381 37.6347 7.61312 37.5161L7.60498 37.4864L7.59684 37.4567C7.56836 37.3628 7.53581 37.2738 7.50732 37.1799L7.49919 37.1502L7.49105 37.1205L7.48291 37.0909L7.47477 37.0612C7.44629 36.9673 7.41781 36.8733 7.38932 36.7794L7.38119 36.7497C6.46159 33.5657 6.014 29.6549 6.11572 24.8937C9.47673 25.1014 12.7645 24.2213 15.9505 21.2153ZM1.59098 7.19866H48.409V3.34223C48.409 2.95659 48.2788 2.60556 48.0672 2.34846C47.8556 2.09137 47.5667 1.93316 47.2494 1.93316H2.75065C2.43327 1.93316 2.14437 2.09137 1.93278 2.34846C1.72119 2.60556 1.59098 2.95659 1.59098 3.34223V7.19866Z" fill="#CB9351"/>
<path id="Vector_2" d="M10.0179 33.2937L12.1216 33.2591L12.2803 33.3085C12.7035 33.6052 13.1063 33.9463 13.4806 34.3319C13.7492 34.6088 14.0096 34.9104 14.2537 35.2417C15.0106 33.7634 15.8122 32.4087 16.6626 31.1628C17.5944 29.7982 18.5832 28.5572 19.6208 27.425L19.8242 27.3311H22.1232L21.6593 27.954C20.2352 29.8773 18.9453 31.8599 17.7775 33.9117C16.6097 35.9635 15.568 38.0796 14.6403 40.255L14.3514 40.9324L14.0869 40.2451C13.5986 38.9695 13.0127 37.7978 12.3128 36.7496C11.613 35.7015 10.7992 34.772 9.85107 33.9809L10.0179 33.2937Z" fill="#CB9351"/>
</g>
</g>
<defs>
<clipPath id="clip0_130_411">
<rect width="50" height="50" fill="white"/>
</clipPath>
</defs>
</svg>
