<svg width="131" height="50" viewBox="0 0 131 50" fill="none" xmlns="http://www.w3.org/2000/svg">
<g clip-path="url(#clip0_138_478)">
<path d="M13.9146 18.4722C13.9146 24.6985 12.4803 28.9156 8.84799 28.9156H7.70023V9.08607C8.10827 9.03765 8.48934 9.03765 8.84799 9.03765C12.2874 9.03697 13.9146 12.4499 13.9146 18.4722ZM10.1861 37.5495C16.6854 37.5495 20.7946 30.5197 20.7946 18.2738C20.7943 4.8179 16.3982 0 9.23036 0C6.45827 0 3.11311 0.400355 0.724365 1.00259V48.9974H7.70056V37.5495H10.1861ZM103.656 18.4722C103.656 24.6985 102.224 28.9156 98.5905 28.9156H97.4467V9.08607C97.8511 9.03765 98.2329 9.03765 98.5905 9.03765C102.03 9.03697 103.656 12.4499 103.656 18.4722ZM99.9319 37.5495C106.426 37.5495 110.538 30.5197 110.538 18.2738C110.538 4.8179 106.142 0 98.9735 0C96.2021 0 92.855 0.400355 90.4659 1.00259V48.9974H97.4457V37.5495H99.9319ZM119.616 13.2513C119.616 10.6418 120.86 9.43528 122.865 9.43528C125.064 9.43528 127.455 10.4399 129.078 11.851L128.505 1.40567C126.688 0.602237 125.064 0 122.102 0C116.462 0 112.641 4.67058 112.641 14.4598C112.641 31.3232 123.538 27.9123 123.538 35.7434C123.538 38.7526 122.485 40.3581 119.903 40.3581C117.613 40.3581 114.074 38.7526 111.972 36.5448L112.738 47.5924C114.839 49.1986 117.706 49.9993 120.001 49.9993C125.829 49.9993 130.609 45.9821 130.609 33.9319C130.609 17.8734 119.616 20.8826 119.616 13.2513ZM85.2115 1.00259H78.2353V48.9974H85.2115V1.00259ZM56.9211 1.00259H49.9443V48.9974H56.9211V1.00259ZM69.0588 39.3555V1.00259H62.082V48.9974H74.6988L75.7491 39.3555H69.0588ZM44.7838 1.00259H37.807V20.0791H30.5433V1.00259H23.5651V48.9974H30.5429V30.1194H37.8066V48.9974H44.7835L44.7838 1.00259Z" fill="#CB9351" fill-opacity="0.7"/>
</g>
<defs>
<clipPath id="clip0_138_478">
<rect width="130" height="50" fill="white" transform="translate(0.666748)"/>
</clipPath>
</defs>
</svg>
