<svg width="55" height="55" viewBox="0 0 55 55" fill="none" xmlns="http://www.w3.org/2000/svg">
<path d="M45.7188 48.125C40.9444 48.125 36.2274 47.0842 31.5677 45.0026C26.908 42.921 22.6684 39.9705 18.849 36.151C15.0295 32.3316 12.079 28.092 9.9974 23.4323C7.9158 18.7726 6.875 14.0556 6.875 9.28125C6.875 8.59375 7.10417 8.02083 7.5625 7.5625C8.02083 7.10417 8.59375 6.875 9.28125 6.875H18.5625C19.0972 6.875 19.5747 7.05642 19.9948 7.41927C20.4149 7.78212 20.6632 8.21181 20.7396 8.70833L22.2292 16.7292C22.3056 17.3403 22.2865 17.8559 22.1719 18.276C22.0573 18.6962 21.8472 19.059 21.5417 19.3646L15.9844 24.9792C16.7483 26.3924 17.6554 27.7578 18.7057 29.0755C19.7561 30.3932 20.9115 31.6632 22.1719 32.8854C23.3559 34.0694 24.5972 35.1675 25.8958 36.1797C27.1944 37.1918 28.5694 38.1181 30.0208 38.9583L35.4062 33.5729C35.75 33.2292 36.1988 32.9714 36.7526 32.7995C37.3064 32.6276 37.8507 32.5799 38.3854 32.6562L46.2917 34.2604C46.8264 34.4132 47.2656 34.6901 47.6094 35.0911C47.9531 35.4922 48.125 35.941 48.125 36.4375V45.7188C48.125 46.4062 47.8958 46.9792 47.4375 47.4375C46.9792 47.8958 46.4062 48.125 45.7188 48.125ZM13.8073 20.625L17.5885 16.8438L16.6146 11.4583H11.5156C11.7066 13.0243 11.974 14.5712 12.3177 16.099C12.6615 17.6267 13.158 19.1354 13.8073 20.625ZM34.3177 41.1354C35.8073 41.7847 37.3255 42.3003 38.8724 42.6823C40.4193 43.0642 41.9757 43.3125 43.5417 43.4271V38.3854L38.1562 37.2969L34.3177 41.1354Z" fill="#CB9351"/>
</svg>
