<svg width="43" height="43" viewBox="0 0 43 43" fill="none" xmlns="http://www.w3.org/2000/svg">
<path d="M39.7188 42.125C34.9444 42.125 30.2274 41.0842 25.5677 39.0026C20.908 36.921 16.6684 33.9705 12.849 30.151C9.02951 26.3316 6.07899 22.092 3.9974 17.4323C1.9158 12.7726 0.875 8.05556 0.875 3.28125C0.875 2.59375 1.10417 2.02083 1.5625 1.5625C2.02083 1.10417 2.59375 0.875 3.28125 0.875H12.5625C13.0972 0.875 13.5747 1.05642 13.9948 1.41927C14.4149 1.78212 14.6632 2.21181 14.7396 2.70833L16.2292 10.7292C16.3056 11.3403 16.2865 11.8559 16.1719 12.276C16.0573 12.6962 15.8472 13.059 15.5417 13.3646L9.98438 18.9792C10.7483 20.3924 11.6554 21.7578 12.7057 23.0755C13.7561 24.3932 14.9115 25.6632 16.1719 26.8854C17.3559 28.0694 18.5972 29.1675 19.8958 30.1797C21.1944 31.1918 22.5694 32.1181 24.0208 32.9583L29.4062 27.5729C29.75 27.2292 30.1988 26.9714 30.7526 26.7995C31.3064 26.6276 31.8507 26.5799 32.3854 26.6562L40.2917 28.2604C40.8264 28.4132 41.2656 28.6901 41.6094 29.0911C41.9531 29.4922 42.125 29.941 42.125 30.4375V39.7188C42.125 40.4062 41.8958 40.9792 41.4375 41.4375C40.9792 41.8958 40.4062 42.125 39.7188 42.125ZM7.80729 14.625L11.5885 10.8438L10.6146 5.45833H5.51562C5.7066 7.02431 5.97396 8.57118 6.31771 10.099C6.66146 11.6267 7.15799 13.1354 7.80729 14.625ZM28.3177 35.1354C29.8073 35.7847 31.3255 36.3003 32.8724 36.6823C34.4193 37.0642 35.9757 37.3125 37.5417 37.4271V32.3854L32.1562 31.2969L28.3177 35.1354Z" fill="#CB9351"/>
</svg>
