<svg width="120" height="50" viewBox="0 0 120 50" fill="none" xmlns="http://www.w3.org/2000/svg">
<path d="M37.6122 0.226105C35.9529 0.984901 35.0852 2.38394 33.6542 6.67589C32.0558 11.4895 27.1387 28.5862 27.1387 29.2975C27.1387 29.4398 28.2195 29.5347 29.7875 29.5347H32.4211L33.0453 27.3294L33.6694 25.1479L36.7902 25.0293C40.5503 24.887 40.4285 24.9819 41.5093 21.6384C41.9204 20.3817 42.2705 19.362 42.3009 19.4095C42.3162 19.4332 42.986 21.6859 43.7776 24.4365L45.2238 29.4161L47.9183 29.4872C50.0495 29.5347 50.5976 29.4872 50.5367 29.2501C49.3797 24.7922 46.5939 15.0464 45.0259 9.92449C43.5797 5.22943 42.575 2.62106 41.8747 1.76741C40.6416 0.226105 38.9671 -0.366707 37.6122 0.226105ZM40.4589 12.77C41.2658 15.6155 41.9051 18.0104 41.8595 18.0579C41.829 18.1053 40.4285 18.129 38.7539 18.1053L35.7093 18.0341L37.2469 12.6514C38.0841 9.68736 38.8148 7.33983 38.8757 7.43468C38.9366 7.52953 39.6369 9.92449 40.4589 12.77Z" fill="#CB9351" fill-opacity="0.7"/>
<path d="M51.8456 7.64809C51.8913 11.6792 51.937 18.2238 51.937 22.2312L51.9522 29.5347H54.3879H56.8236V20.6899V11.8689L57.2803 12.9834C58.0415 14.8804 59.7769 19.7889 60.9034 23.2746C62.0604 26.8077 62.7302 28.1119 63.7502 28.847C64.2678 29.2264 64.7549 29.2975 66.81 29.2975H69.261L69.3523 28.1593C69.4132 27.5428 69.4589 21.1168 69.4741 13.8845L69.5045 0.724066H67.0079H64.5113V9.09455C64.5113 13.6711 64.4809 17.4413 64.4352 17.4413C64.3895 17.4413 63.5066 15.0227 62.4714 12.0349C59.7008 4.11494 59.0462 2.62106 57.6761 1.05604L57.0824 0.36838H54.4336H51.7695L51.8456 7.64809Z" fill="#CB9351" fill-opacity="0.7"/>
<path d="M4.44094 1.08116C1.89867 1.74511 0.345911 4.54317 0.0566709 8.9774C-0.171677 12.5817 0.285018 15.0478 1.51809 16.7314C2.69028 18.3438 4.45617 18.8892 8.06406 18.8181C9.98217 18.7706 10.2562 18.8181 10.5302 19.1975C10.926 19.7666 10.9565 21.0233 10.5759 21.545C10.3171 21.9007 9.7386 21.9481 5.32389 21.9481H0.345911V25.7658V29.5835L6.17638 29.4886C11.7633 29.3938 12.0221 29.3701 12.8441 28.8721C13.925 28.2082 14.8536 26.738 15.2951 25.0307C15.5995 23.8925 15.6452 23.276 15.6452 20.4068C15.6452 17.253 15.63 17.0159 15.2189 15.7354C14.7166 14.123 13.9859 13.1271 12.8289 12.4157C12.0982 11.9652 11.5806 11.894 8.67298 11.7755C5.4 11.6332 5.33911 11.6332 5.04987 11.0641C4.68451 10.3527 4.68451 9.59392 5.04987 8.88255L5.33911 8.31345L12.6615 8.24231L19.9838 8.14746V18.6995V29.2278L20.5623 29.3938C20.8667 29.4649 21.9933 29.5361 23.0741 29.5361H25.0074V18.9129V8.31345L27.7172 8.24231C31.2489 8.12375 31.188 8.19489 32.4668 3.73695C32.8778 2.29049 33.2279 1.03374 33.2279 0.962597C33.2279 0.772898 5.18688 0.89146 4.44094 1.08116Z" fill="#CB9351" fill-opacity="0.7"/>
<path d="M71.5902 12.272C71.5902 18.5795 71.6511 24.3416 71.6967 25.1242C71.8033 26.7603 72.397 28.1593 73.3408 28.9893C73.9345 29.511 74.0411 29.5347 79.4758 29.5347H84.9866V26.0964V22.6581H80.9829C78.0752 22.6581 76.9335 22.5869 76.7965 22.3735C76.6595 22.1601 76.6138 19.4095 76.6138 11.4658V0.842627H74.102H71.575L71.5902 12.272Z" fill="#CB9351" fill-opacity="0.7"/>
<path d="M86.844 13.8133L86.8897 26.8077L87.255 27.7325C87.9705 29.511 88.0466 29.5347 95.0493 29.5347H101.245L101.306 28.3965C101.352 27.7799 101.397 26.2861 101.413 25.0767L101.443 22.8478L96.8761 22.9426L92.2939 23.0137V20.5714V18.1527H96.0997H99.9055V15.0701V11.9875L96.4498 11.94C94.5317 11.9163 92.7963 11.8926 92.5679 11.8926C92.1569 11.8689 92.1569 11.8689 92.1112 9.82964L92.0656 7.76666L97.0131 7.67181C101.869 7.55325 101.961 7.57696 102.326 8.05121C102.859 8.78629 103.848 11.039 105.112 14.3587C105.736 15.9949 106.497 17.9156 106.802 18.627L107.365 19.9311V24.721V29.5347H109.709C112.008 29.5347 112.054 29.5347 112.145 28.9893C112.191 28.7047 112.236 26.5943 112.236 24.3416V20.192L113.896 16.1609C115.844 11.3709 116.666 9.30796 118.584 4.44692L120 0.842627H117.351H114.702L113.013 5.15829C112.099 7.55325 111.018 10.2802 110.623 11.2524L109.907 13.0071L109.1 11.0153C108.659 9.92449 107.548 7.19756 106.649 4.9923L105.005 0.961189L95.9018 0.890053L86.7983 0.842627L86.844 13.8133Z" fill="#CB9351" fill-opacity="0.7"/>
<path d="M114.123 27.1161C113.53 27.7089 113.621 29.108 114.276 29.5585C115.128 30.175 115.859 28.3017 115.159 27.3295C114.869 26.9027 114.413 26.8079 114.123 27.1161Z" fill="#CB9351" fill-opacity="0.7"/>
<path d="M60.5384 37.3129C59.5032 38.0717 59.3814 38.7594 59.4423 43.7627C59.488 47.6278 59.5184 48.0546 59.8077 48.6712C60.2492 49.596 60.8733 50.0228 61.7715 49.9991C62.7153 49.9991 63.446 49.43 63.7505 48.5289C64.0702 47.533 64.1311 39.6842 63.8114 38.6882C63.2938 37.0521 61.7715 36.4118 60.5384 37.3129ZM62.1521 38.546C62.35 38.7357 62.3804 39.5419 62.3804 43.407C62.3804 47.7464 62.3652 48.1021 62.0912 48.4103C61.7106 48.8372 61.6192 48.8372 61.33 48.3629C61.1321 48.0546 61.0864 47.2721 61.0864 43.6204C61.0864 41.0358 61.1473 39.0439 61.2387 38.7594C61.4213 38.2614 61.7867 38.1903 62.1521 38.546Z" fill="#CB9351" fill-opacity="0.7"/>
<path d="M27.7171 43.4068L27.6714 49.7144L29.7113 49.6432L31.7512 49.5721L32.0709 48.9081C32.3297 48.339 32.3906 47.8885 32.3906 46.2523C32.3906 44.545 32.3449 44.1656 32.0404 43.5254C31.6903 42.7903 31.6903 42.7666 31.9491 42.2924C32.1622 41.9604 32.2383 41.4387 32.2383 40.4428C32.2383 37.9056 31.5381 37.1705 29.1633 37.1468L27.7627 37.1231L27.7171 43.4068ZM30.5181 39.0912C30.579 39.2335 30.6399 39.9923 30.6399 40.7511C30.6399 42.0078 30.6095 42.1264 30.2441 42.3398C29.4525 42.814 29.4221 42.7429 29.4221 40.5376V38.4747L29.9092 38.6407C30.1832 38.7118 30.4572 38.9252 30.5181 39.0912ZM30.4572 44.0471C30.7008 44.4265 30.7008 47.6039 30.4572 47.9833C30.3507 48.1493 30.0766 48.2679 29.8483 48.2679H29.4221V46.0152V43.7625H29.8483C30.0766 43.7625 30.3507 43.8811 30.4572 44.0471Z" fill="#CB9351" fill-opacity="0.7"/>
<path d="M33.9893 42.4588C33.9893 48.4818 34.0502 48.8612 35.0092 49.5726C35.7247 50.118 36.973 50.118 37.6276 49.5963C38.4649 48.9086 38.5562 48.221 38.5562 42.3403V37.1235H37.7189H36.8817V42.0794C36.8817 47.225 36.7903 48.2684 36.3032 48.2684C35.7095 48.2684 35.6638 47.889 35.6638 42.4114V37.1235H34.8265H33.9893V42.4588Z" fill="#CB9351" fill-opacity="0.7"/>
<path d="M40.231 43.4061V49.6899H41.0682H41.9055V43.4061V37.1224H41.0682H40.231V43.4061Z" fill="#CB9351" fill-opacity="0.7"/>
<path d="M43.7317 43.4061V49.6899H45.254H46.7763V48.86C46.7763 48.0301 46.7763 48.0301 46.0913 48.0301H45.4062V42.5762V37.1224H44.569H43.7317V43.4061Z" fill="#CB9351" fill-opacity="0.7"/>
<path d="M46.9287 38.0709V39.0193H47.6138H48.2988V44.3546V49.6899H49.1361H49.9733V44.3546V39.0193H50.6736H51.3587L51.313 38.1183L51.2673 37.2409L49.1056 37.1698L46.9287 37.0986V38.0709Z" fill="#CB9351" fill-opacity="0.7"/>
<path d="M54.845 43.4061V49.6899H55.6822H56.5195V46.963V44.2361H57.2046H57.8896V43.2876V42.3391H57.2046H56.5195V40.6792V39.0193H57.3416H58.1636L58.1484 38.1183L58.118 37.2409L56.4891 37.1698L54.845 37.0986V43.4061Z" fill="#CB9351" fill-opacity="0.7"/>
<path d="M65.7901 37.2646C65.7749 37.3832 65.7597 40.2287 65.7445 43.5721L65.7292 49.6899H66.6122H67.4799V46.7259V43.7618H67.9366C68.5608 43.7618 68.6978 44.4021 68.6978 47.3424V49.6899H69.4589H70.2201V47.1764C70.2201 44.6866 70.0983 43.9041 69.6264 43.3587C69.4133 43.1216 69.4285 43.0505 69.7482 42.6474C70.4637 41.7463 70.3114 38.4977 69.5198 37.6677C69.1088 37.2646 65.8206 36.8852 65.7901 37.2646ZM68.3933 39.0193C69.0631 40.0627 68.6369 42.5762 67.7844 42.5762C67.5104 42.5762 67.4799 42.4102 67.4799 40.5607C67.4799 38.7111 67.5104 38.5451 67.7844 38.5451C67.9518 38.5451 68.2258 38.7585 68.3933 39.0193Z" fill="#CB9351" fill-opacity="0.7"/>
<path d="M74.148 43.3824L74.1023 49.6899H75.6703H77.223V48.8837C77.223 48.0775 77.2078 48.0538 76.5228 47.9826L75.8377 47.9115L75.8073 42.5762L75.7768 37.2409L74.9852 37.1698L74.1936 37.0986L74.148 43.3824Z" fill="#CB9351" fill-opacity="0.7"/>
<path d="M78.5933 43.4061V49.6899H79.4305H80.2678V43.4061V37.1224H79.4305H78.5933V43.4061Z" fill="#CB9351" fill-opacity="0.7"/>
<path d="M81.9421 43.4061V49.6899H82.7794H83.6015L83.6471 46.9156L83.6928 44.1175L84.3474 44.1887L84.9868 44.2835V43.3113V42.3391H84.3017H83.6167V40.6792V39.0193H84.4692H85.3065L85.2608 38.1183L85.2151 37.2409L83.5862 37.1698L81.9421 37.0986V43.4061Z" fill="#CB9351" fill-opacity="0.7"/>
<path d="M86.6306 43.4061L86.585 49.6899H88.2595H89.9341V48.86V48.0301H89.1425H88.3356V46.0619V44.1175H88.975C89.6144 44.1175 89.6296 44.0938 89.6753 43.2164L89.7209 42.3391H89.0359H88.3356V40.6792V39.0193H89.0207H89.7057V38.0708V37.1224H88.1834H86.6763L86.6306 43.4061Z" fill="#CB9351" fill-opacity="0.7"/>
<path d="M90.9539 37.7396C90.5429 38.1665 90.5276 38.8067 90.893 39.3284C91.2736 39.8738 91.6237 39.8263 91.8977 39.2098C92.2022 38.5222 92.2022 38.4036 91.8368 37.8345C91.4715 37.2654 91.3954 37.2654 90.9539 37.7396Z" fill="#CB9351" fill-opacity="0.7"/>
</svg>
